<svg width="429" height="120" viewBox="0 0 429 120" fill="none" xmlns="http://www.w3.org/2000/svg">
<path d="M164.833 79.6659C164.767 79.336 164.78 78.9952 164.872 78.6714C164.965 78.3477 165.134 78.0501 165.365 77.8029C165.596 77.5557 165.883 77.366 166.203 77.2493C166.522 77.1327 166.865 77.0922 167.204 77.1311H175.995C176.326 77.1032 176.66 77.1471 176.972 77.2596C177.285 77.3723 177.568 77.551 177.804 77.7831C178.039 78.0152 178.22 78.2952 178.334 78.6036C178.448 78.912 178.493 79.2412 178.464 79.5684C179.057 85.2228 181.724 87.3672 188.145 87.3672H207.504C215.012 87.3672 217.678 85.5156 217.678 79.8609C217.678 74.4027 215.11 72.9402 208.492 72.4524L186.465 70.7949C171.254 69.6252 165.228 64.7511 165.228 51.8841C165.228 38.7231 171.649 31.5099 188.836 31.5099H206.911C222.519 31.5099 229.532 38.4306 230.223 52.1757C230.29 52.5056 230.276 52.8464 230.184 53.1702C230.092 53.4941 229.923 53.7918 229.692 54.039C229.46 54.2861 229.173 54.4758 228.854 54.5925C228.534 54.7091 228.191 54.7494 227.852 54.7101H218.963C218.631 54.7381 218.297 54.6943 217.985 54.5817C217.672 54.4692 217.389 54.2906 217.154 54.0585C216.918 53.8264 216.737 53.5464 216.623 53.238C216.509 52.9296 216.465 52.6004 216.493 52.2732C215.901 46.6197 213.233 44.4756 206.911 44.4756H189.034C181.428 44.4756 178.761 46.2293 178.761 51.9816C178.761 57.3422 181.329 58.7073 187.946 59.1951L209.974 60.8517C224.988 62.0214 231.309 67.188 231.309 79.9587C231.309 93.1194 224.889 100.333 207.603 100.333H188.145C172.439 100.333 165.525 93.4109 164.833 79.6659ZM288.893 98.4801L284.251 88.4394H244.345L239.604 98.4801C239.352 99.0444 238.936 99.5219 238.408 99.852C237.881 100.182 237.265 100.349 236.641 100.333H226.665C224.788 100.333 223.998 99.1632 224.788 97.5057L256.198 33.2649C256.434 32.7165 256.836 32.2535 257.349 31.9392C257.862 31.6252 258.46 31.4751 259.063 31.5096H269.533C270.136 31.475 270.735 31.6252 271.247 31.9394C271.76 32.2536 272.162 32.7166 272.398 33.2649L303.71 97.5057C304.501 99.1632 303.709 100.333 301.833 100.333H291.857C291.228 100.37 290.604 100.21 290.072 99.8777C289.54 99.5453 289.128 99.0564 288.893 98.4801ZM279.114 77.3265L264.396 45.6453L249.482 77.3265H279.114ZM296.793 76.6446V55.2957C296.793 40.6734 303.806 31.5096 320.202 31.5096H342.921C358.33 31.5096 365.443 39.1134 366.233 52.1757C366.299 52.5056 366.286 52.8463 366.194 53.1702C366.102 53.4941 365.933 53.7918 365.701 54.0387C365.47 54.2859 365.182 54.4756 364.862 54.5925C364.543 54.7091 364.2 54.7494 363.862 54.7101H354.971C354.64 54.7381 354.307 54.6943 353.995 54.5817C353.682 54.4688 353.398 54.2903 353.162 54.0585C352.927 53.8264 352.747 53.5463 352.633 53.238C352.519 52.9297 352.474 52.6004 352.503 52.2732C351.91 45.9366 349.047 44.4753 342.921 44.4753H320.202C313.387 44.4753 310.523 46.3269 310.523 54.8079V77.1311C310.523 85.5155 313.584 87.3672 320.202 87.3672H342.921C349.539 87.3672 352.6 85.5155 352.6 77.1311V73.8171H335.611C335.278 73.8533 334.941 73.8152 334.626 73.7057C334.309 73.5959 334.021 73.4175 333.783 73.1835C333.547 72.9493 333.366 72.6659 333.255 72.354C333.145 72.0416 333.106 71.709 333.142 71.3802V64.362C333.106 64.0332 333.145 63.7006 333.255 63.3882C333.366 63.0762 333.547 62.7927 333.783 62.5584C334.021 62.3245 334.309 62.1461 334.626 62.0364C334.941 61.927 335.278 61.8888 335.611 61.9247H363.862C364.195 61.8885 364.531 61.9267 364.847 62.0364C365.164 62.146 365.452 62.3244 365.689 62.5584C365.926 62.7926 366.106 63.076 366.218 63.3879C366.33 63.7 366.368 64.0331 366.331 64.362V76.6446C366.331 91.1691 359.318 100.333 342.921 100.333H320.202C303.806 100.333 296.793 91.1691 296.793 76.6446ZM369.589 97.896V33.9468C369.552 33.618 369.59 33.285 369.702 32.973C369.812 32.6605 369.993 32.3767 370.23 32.1432C370.467 31.9095 370.754 31.7311 371.069 31.6212C371.386 31.5117 371.724 31.4735 372.058 31.5096H426.09C426.422 31.4737 426.759 31.5118 427.075 31.6212C427.391 31.7311 427.679 31.9094 427.917 32.1432C428.153 32.3775 428.334 32.661 428.445 32.973C428.555 33.2854 428.594 33.618 428.558 33.9468V42.0372C428.594 42.3661 428.555 42.6988 428.445 43.0113C428.334 43.3232 428.153 43.6067 427.917 43.8411C427.679 44.0751 427.391 44.2535 427.075 44.3634C426.759 44.4732 426.422 44.5114 426.09 44.4753H383.22V59.4867H410.976C411.31 59.4507 411.647 59.489 411.964 59.5986C412.279 59.7085 412.566 59.8869 412.803 60.1209C413.04 60.3546 413.221 60.6384 413.332 60.9509C413.443 61.263 413.482 61.5959 413.444 61.9247V69.0408C413.482 69.3696 413.443 69.7025 413.332 70.0146C413.22 70.3265 413.039 70.6098 412.803 70.8441C412.566 71.0787 412.278 71.2572 411.961 71.3661C411.645 71.4759 411.309 71.5141 410.976 71.4777H383.22V87.3672H426.09C426.422 87.331 426.759 87.3691 427.075 87.4788C427.391 87.5885 427.679 87.7669 427.917 88.0007C428.153 88.235 428.334 88.5184 428.445 88.8303C428.555 89.1427 428.594 89.4753 428.558 89.8041V97.896C428.594 98.2248 428.555 98.5574 428.445 98.8698C428.334 99.1816 428.153 99.465 427.917 99.6993C427.679 99.9333 427.391 100.112 427.075 100.221C426.759 100.331 426.422 100.369 426.09 100.333H372.058C371.724 100.369 371.386 100.331 371.069 100.221C370.754 100.112 370.467 99.9332 370.23 99.6993C369.993 99.4658 369.812 99.1822 369.702 98.8698C369.59 98.5577 369.552 98.2248 369.589 97.896ZM76.8978 119.41L70.9678 113.557C70.5848 113.179 70.3697 112.666 70.3696 112.132C70.3696 111.867 70.4221 111.605 70.5247 111.36C70.6274 111.115 70.7781 110.893 70.9678 110.706L76.8978 104.854C77.0875 104.666 77.3127 104.518 77.5605 104.416C77.8083 104.315 78.0742 104.263 78.3424 104.263C78.6107 104.263 78.876 104.315 79.1238 104.416C79.3717 104.518 79.5969 104.666 79.7866 104.854L85.7166 110.706C85.9063 110.893 86.0569 111.115 86.1597 111.36C86.2624 111.605 86.3151 111.867 86.3151 112.132C86.3151 112.396 86.2624 112.658 86.1597 112.903C86.057 113.148 85.9063 113.37 85.7166 113.557L79.7866 119.41C79.5969 119.597 79.3717 119.745 79.1238 119.847C78.876 119.948 78.6106 120 78.3424 120C77.8007 120 77.2809 119.788 76.8978 119.41ZM155.957 79.0509L122.824 111.75C120.383 114.16 117.071 115.513 113.618 115.513C110.165 115.513 106.854 114.16 104.412 111.75L80.099 87.7548C79.8683 87.5271 79.5944 87.3465 79.2931 87.2232C78.9916 87.1 78.6687 87.0365 78.3424 87.0366C78.0162 87.0365 77.6931 87.1 77.3917 87.2232C77.0903 87.3465 76.8164 87.5271 76.5857 87.7548L52.2723 111.75C49.8307 114.16 46.5194 115.513 43.0665 115.513C39.6136 115.513 36.3019 114.16 33.8603 111.75L0.727663 79.0509C0.261794 78.5911 -1.0687e-05 77.9674 3.27613e-10 77.3172C5.85233e-05 76.667 0.261858 76.0435 0.727663 75.5838L76.5857 0.718002C76.8164 0.490404 77.0904 0.309836 77.3917 0.186584C77.6931 0.0634022 78.0162 1.14808e-05 78.3424 3.69991e-09C78.6687 -1.76827e-05 78.9916 0.0633735 79.2931 0.186584C79.5944 0.309841 79.8683 0.490409 80.099 0.718002L155.957 75.5838C156.188 75.8114 156.371 76.0816 156.496 76.379C156.621 76.6765 156.685 76.9953 156.686 77.3172C156.685 77.6392 156.621 77.958 156.496 78.2556C156.371 78.553 156.188 78.8232 155.957 79.0509ZM80.099 70.347L94.2241 84.2874C94.6899 84.747 95.3216 85.0052 95.9803 85.0053C96.3066 85.0054 96.6296 84.942 96.931 84.8188C97.2324 84.6957 97.5063 84.515 97.737 84.2874L103.043 79.0509C103.274 78.8231 103.457 78.5529 103.582 78.2556C103.707 77.9581 103.771 77.6392 103.771 77.3172C103.771 76.9953 103.707 76.6765 103.582 76.379C103.457 76.0817 103.274 75.8116 103.043 75.5838L80.099 52.9398C79.8684 52.7121 79.5944 52.5316 79.2931 52.4084C78.9916 52.2851 78.6687 52.2216 78.3424 52.2216C78.0162 52.2217 77.693 52.2851 77.3917 52.4084C77.0903 52.5316 76.8164 52.7121 76.5857 52.9398L53.6415 75.5838C53.4109 75.8114 53.2279 76.0816 53.1031 76.379C52.9783 76.6765 52.9142 76.9953 52.9142 77.3172C52.9142 77.6392 52.9783 77.9581 53.1031 78.2556C53.2279 78.553 53.4109 78.8232 53.6415 79.0509L58.9478 84.2874C59.4137 84.747 60.0453 85.0053 60.7041 85.0053C61.3628 85.0053 61.9948 84.747 62.4607 84.2874L76.5857 70.347C76.8165 70.1193 77.0904 69.9387 77.3917 69.8154C77.6931 69.6923 78.0162 69.6289 78.3424 69.6288C78.6686 69.6289 78.9916 69.6923 79.2931 69.8154C79.5944 69.9387 79.8683 70.1193 80.099 70.347ZM115.375 101.695L138.319 79.0509C138.55 78.8231 138.733 78.5529 138.858 78.2556C138.982 77.9581 139.047 77.6392 139.047 77.3172C139.047 76.9953 138.982 76.6765 138.858 76.379C138.733 76.0817 138.55 75.8115 138.319 75.5838L80.099 18.1252C79.8683 17.8976 79.5944 17.717 79.2931 17.5938C78.9916 17.4706 78.6687 17.4071 78.3424 17.4071C78.0162 17.4072 77.6931 17.4706 77.3917 17.5938C77.0904 17.717 76.8164 17.8976 76.5857 18.1252L18.3656 75.5838C18.135 75.8115 17.9521 76.0817 17.8272 76.379C17.7024 76.6765 17.638 76.9953 17.638 77.3172C17.638 77.6392 17.7024 77.958 17.8272 78.2556C17.9521 78.553 18.135 78.8232 18.3656 79.0509L41.3098 101.694C41.7757 102.154 42.4077 102.412 43.0665 102.412C43.7252 102.412 44.3569 102.154 44.8227 101.694L50.1286 96.4577C50.5944 95.998 50.8563 95.3745 50.8563 94.7244C50.8563 94.0742 50.5944 93.4507 50.1286 92.991L36.0039 79.0509C35.7733 78.8232 35.5903 78.5529 35.4655 78.2555C35.3407 77.958 35.2766 77.6392 35.2766 77.3172C35.2766 76.9953 35.3407 76.6765 35.4655 76.379C35.5903 76.0816 35.7733 75.8114 36.0039 75.5838L76.5857 35.532C76.8165 35.3044 77.0904 35.1239 77.3917 35.0007C77.6931 34.8774 78.0162 34.8141 78.3424 34.8141C78.6687 34.8141 78.9916 34.8774 79.2931 35.0007C79.5944 35.1239 79.8683 35.3044 80.099 35.532L120.681 75.5838C121.147 76.0436 121.408 76.6671 121.408 77.3172C121.408 77.9674 121.147 78.591 120.681 79.0509L106.556 92.9913C106.325 93.2189 106.142 93.4892 106.017 93.7866C105.893 94.084 105.828 94.4027 105.828 94.7247C105.828 95.3748 106.09 95.9983 106.556 96.4581L111.862 101.695C112.093 101.923 112.366 102.103 112.668 102.226C112.969 102.349 113.292 102.413 113.618 102.413C113.944 102.413 114.268 102.349 114.569 102.226C114.87 102.103 115.144 101.923 115.375 101.695Z" fill="#333333"/>
</svg>
